# xmcd
#
# Track frame offsets:
# 182
# 11945
# 20762
# 33272
# 51970
# 62322
# 75002
# 88185
# 100785
# 110582
# 133212
# 146742
#
# Disc length: 2170 seconds
#
#
# Revision: 0
# Processed by: cddbd v1.5.1PL2 Copyright (c) Steve Scherf et al.
# Submitted via: FreeRIP 2.943 
#
DISCID=9b08780c
DTITLE=Lightnin' Charlie and the Upsetters - Lightnin' Charlie and the Upsetters
DYEAR=1994
DGENRE=Blues
TTITLE0=Too Hot For the Devil
TTITLE1=I Got Stung
TTITLE2=Blind Date
TTITLE3=Everynight, Everyday
TTITLE4=Don't Start Me To Talkin'
TTITLE5=Get On Up
TTITLE6=I'm Gonna Keep What I Got
TTITLE7=Brainwashed
TTITLE8=Down In the Valley
TTITLE9=Shake Your Hips
TTITLE10=Lightnin' Man
TTITLE11=I Can't Be Satisfied
EXTD=Blue Chip Records\n(423) 202-2457\nhttp://www.lightnincharlie.com/
EXTT0=
EXTT1=
EXTT2=
EXTT3=
EXTT4=
EXTT5=
EXTT6=
EXTT7=
EXTT8=
EXTT9=
EXTT10=
EXTT11=
PLAYORDER=
